<?xml version="1.0" encoding="utf-8"?>
<!-- Generator: Adobe Illustrator 20.0.0, SVG Export Plug-In . SVG Version: 6.00 Build 0)  -->
<svg version="1.1" id="Layer_1" xmlns="http://www.w3.org/2000/svg" xmlns:xlink="http://www.w3.org/1999/xlink" x="0px" y="0px"
	 viewBox="0 0 300.2 230" enable-background="new 0 0 300.2 230" xml:space="preserve">
<title>Artboard 1 copy 16</title>
<g>
	<g id="Layer_4">
		<path fill="#CAE2FF" d="M258.2,178.5c0,22.9-18.6,41.5-41.5,41.5h-128c-22.9,0-41.5-18.6-41.5-41.5l0,0
			c0-22.9,18.6-41.5,41.5-41.5h0h128C239.7,137,258.2,155.6,258.2,178.5L258.2,178.5z"/>
		<ellipse fill="#F9D294" cx="155.7" cy="147.9" rx="17.8" ry="42.3"/>
		
			<ellipse fill="#FFB306" stroke="#F7C779" stroke-linecap="round" stroke-linejoin="round" cx="155.7" cy="143.4" rx="12.4" ry="31.3"/>
		<path fill="#0048E6" d="M204,150.9l-19.4-47.5c-0.1-0.3-0.4-0.6-0.8-0.6c-0.3-0.1-0.7,0.1-0.9,0.3c-8.4,10-9.5,37.9-9.5,39.1
			c0,0.5,0.3,0.9,0.7,1l28.6,9c0.5,0.2,1.1-0.1,1.3-0.6C204.1,151.3,204.1,151.1,204,150.9L204,150.9z"/>
		<path fill="#0048E6" d="M128.2,103.1c-0.2-0.3-0.6-0.4-0.9-0.3c-0.3,0.1-0.6,0.3-0.8,0.6l-19.3,47.5c-0.2,0.5,0,1.1,0.5,1.3
			c0.2,0.1,0.5,0.1,0.7,0l28.6-9c0.4-0.1,0.7-0.5,0.7-1C137.7,141,136.6,113.1,128.2,103.1z"/>
		<ellipse fill="#0048E6" cx="155.4" cy="136.2" rx="21.7" ry="17"/>
		<path fill="#CAE2FF" d="M155.4,149c-5.5,0-17.1-1.4-20.9-8.4c-3.1-5.8-8.5-21.8-8.8-53.5S144.4,14,155.4,14s29.9,41.5,29.6,73.1
			s-5.7,47.7-8.8,53.4c-3.8,7-15.1,8.4-20.6,8.4L155.4,149z"/>
		<g>
			<defs>
				<path id="SVGID_1_" d="M204,150.9l-19.4-47.5c0-0.1-0.1-0.2-0.2-0.2c0.4-4.8,0.6-10.1,0.6-16c0.2-31.7-18.6-73.1-29.6-73.1
					s-29.9,41.5-29.7,73.1c0,6,0.3,11.4,0.7,16.3l-19.3,47.3c-0.2,0.5,0,1.1,0.5,1.3c0.2,0.1,0.5,0.1,0.7,0l27.5-8.7
					c0.6,1,1.2,1.9,2,2.7c0,0.6,0,1.1,0,1.7c0,23.4,8,42.3,17.8,42.3s17.8-19,17.8-42.3c0-0.8,0-1.5,0-2.2c0.6-0.7,1.1-1.5,1.6-2.2
					l27.7,8.8c0.5,0.2,1.1-0.1,1.3-0.6C204.1,151.3,204.1,151.1,204,150.9L204,150.9z"/>
			</defs>
			<clipPath id="SVGID_2_">
				<use xlink:href="#SVGID_1_"  overflow="visible"/>
			</clipPath>
			<g clip-path="url(#SVGID_2_)">
				<rect x="155.2" y="-15" opacity="0.4" fill="#FFFFFF" enable-background="new    " width="90" height="228"/>
			</g>
		</g>
		<ellipse fill="#0048E6" cx="155.7" cy="132.5" rx="2.9" ry="28"/>
		<g>
			<defs>
				<path id="SVGID_3_" d="M155.5,149c-5.5,0-17.1-1.4-20.9-8.4c-3.1-5.8-8.5-21.8-8.8-53.5S144.4,14,155.5,14s29.9,41.5,29.6,73.1
					s-5.7,47.7-8.8,53.4c-3.8,7-15.1,8.4-20.6,8.4L155.5,149z"/>
			</defs>
			<clipPath id="SVGID_4_">
				<use xlink:href="#SVGID_3_"  overflow="visible"/>
			</clipPath>
			<g clip-path="url(#SVGID_4_)">
				<ellipse fill="#0048E6" cx="154.6" cy="26.3" rx="34.2" ry="13.2"/>
			</g>
		</g>
		<g>
			<defs>
				<polygon id="SVGID_5_" points="140.8,66.1 130.2,76.6 130.2,98 148.7,98 167.2,79.2 				"/>
			</defs>
			<clipPath id="SVGID_6_">
				<use xlink:href="#SVGID_5_"  overflow="visible"/>
			</clipPath>
			<g clip-path="url(#SVGID_6_)">
				
					<radialGradient id="SVGID_7_" cx="147.92" cy="152.98" r="18.05" gradientTransform="matrix(1 0 0 -1 0 230)" gradientUnits="userSpaceOnUse">
					<stop  offset="0" style="stop-color:#081F40;stop-opacity:0.9"/>
					<stop  offset="0.26" style="stop-color:#081F40;stop-opacity:0.83"/>
					<stop  offset="0.53" style="stop-color:#081F40;stop-opacity:0.63"/>
					<stop  offset="0.81" style="stop-color:#081F40;stop-opacity:0.3"/>
					<stop  offset="1" style="stop-color:#081F40;stop-opacity:0"/>
				</radialGradient>
				<circle opacity="0.15" fill="url(#SVGID_7_)" enable-background="new    " cx="147.9" cy="77" r="18.1"/>
			</g>
		</g>
		<circle fill="#80B4FF" stroke="#FFFFFF" stroke-width="2" stroke-miterlimit="10" cx="155.4" cy="73.6" r="14.6"/>
		<circle opacity="0.7" fill="#FFFFFF" enable-background="new    " cx="159.6" cy="66.1" r="2.2"/>
		<g>
			<defs>
				<path id="SVGID_8_" d="M161.6,61.9c-6.5-3.3-14.4-0.7-17.7,5.7s-0.7,14.4,5.7,17.7c6.5,3.3,14.4,0.7,17.7-5.7c0,0,0,0,0,0
					C170.7,73.2,168.1,65.2,161.6,61.9z"/>
			</defs>
			<clipPath id="SVGID_9_">
				<use xlink:href="#SVGID_8_"  overflow="visible"/>
			</clipPath>
			<g clip-path="url(#SVGID_9_)">
				<g opacity="0.25">
					<path fill="#FFFFFF" d="M153.8,86c-6.7,2.3-14.1-1.3-16.4-8c0-0.1-0.1-0.3-0.1-0.4c-2.1-7,1.7-14.5,8.7-16.9
						c6.7-2.3,14.1,1.3,16.4,8c0,0.1,0.1,0.3,0.1,0.4C164.6,76.1,160.8,83.6,153.8,86z"/>
				</g>
			</g>
		</g>
		<path opacity="7.000000e-02" enable-background="new    " d="M220.5,22L220.5,22C220.4,22,220.5,22,220.5,22z"/>
		<polygon fill="none" points="88.2,156.7 86.4,154.9 86.4,154.9 		"/>
		<g>
			<defs>
				<path id="SVGID_10_" d="M259.2,178.5c0,22.9-18.6,41.5-41.5,41.5h-128c-22.9,0-41.5-18.6-41.5-41.5l0,0
					c0-22.9,18.6-41.5,41.5-41.5h0h128C240.7,137,259.2,155.6,259.2,178.5L259.2,178.5z"/>
			</defs>
			<clipPath id="SVGID_11_">
				<use xlink:href="#SVGID_10_"  overflow="visible"/>
			</clipPath>
			<g clip-path="url(#SVGID_11_)">
				<path fill="#80B4FF" d="M67.1,200h59.2c7.7,0,13.9,6.2,13.9,13.9v0.2c0,7.7-6.2,13.9-13.9,13.9H67.1c-7.7,0-13.9-6.2-13.9-13.9
					v-0.2C53.2,206.2,59.5,200,67.1,200z"/>
				<path fill="#80B4FF" d="M49,180h36.5c3.2,0,5.8,2.6,5.8,5.8v0.5c0,3.2-2.6,5.8-5.8,5.8H49c-3.2,0-5.8-2.6-5.8-5.8v-0.5
					C43.2,182.6,45.8,180,49,180z"/>
				<path fill="#80B4FF" d="M46,190h36.5c3.2,0,5.8,2.6,5.8,5.8v5.5c0,3.2-2.6,5.8-5.8,5.8H46c-3.2,0-5.8-2.6-5.8-5.8v-5.5
					C40.2,192.6,42.8,190,46,190z"/>
				<path fill="#CAE2FF" d="M116.2,195.5c0,2.5-2,4.5-4.5,4.5h-39c-2.5,0-4.5-2-4.5-4.5l0,0c0-2.5,2-4.5,4.5-4.5h39
					C114.2,191,116.2,193,116.2,195.5z"/>
				<path fill="#6691F0" d="M96.1,214.4c3.5-6.7,11.7-9.2,18.4-5.7c2.5,1.3,4.5,3.3,5.7,5.7"/>
				<path fill="#6691F0" d="M73.7,205.1c3.5-6.7,11.7-9.2,18.4-5.7c2.5,1.3,4.5,3.3,5.7,5.7"/>
				<path fill="#CAE2FF" d="M66.7,207c2.3-4.3,7.6-6,11.9-3.7c1.6,0.8,2.9,2.1,3.7,3.7"/>
				<path fill="#6691F0" d="M58.5,187.8c1.7-3.2,5.6-4.4,8.7-2.7c1.2,0.6,2.1,1.6,2.7,2.7"/>
				<path fill="#80B4FF" d="M237.1,181h75.2c7.7,0,13.9,6.2,13.9,13.9v0.2c0,7.7-6.2,13.9-13.9,13.9h-75.2
					c-7.7,0-13.9-6.2-13.9-13.9v-0.2C223.2,187.2,229.5,181,237.1,181z"/>
				<path fill="#80B4FF" d="M220,178h36.5c3.2,0,5.8,2.6,5.8,5.8v0.5c0,3.2-2.6,5.8-5.8,5.8H220c-3.2,0-5.8-2.6-5.8-5.8v-0.5
					C214.2,180.6,216.8,178,220,178z"/>
				<path fill="#6691F0" d="M282.1,195.4c3.5-6.7,11.7-9.2,18.4-5.7c2.5,1.3,4.5,3.3,5.7,5.7"/>
				<path fill="#CAE2FF" d="M298.4,197.4c2.3-4.3,7.6-6,11.9-3.7c1.6,0.8,2.9,2.1,3.7,3.7"/>
				<path fill="#6691F0" d="M239.8,188.1c3.5-6.7,11.7-9.2,18.4-5.7c2.5,1.3,4.5,3.3,5.7,5.7"/>
				<path fill="#CAE2FF" d="M232.8,190c2.3-4.3,7.6-6,11.9-3.7c1.6,0.8,2.9,2.1,3.7,3.7"/>
				<path fill="#6691F0" d="M222.9,180.1c1.7-3.2,5.6-4.4,8.7-2.7c1.2,0.6,2.1,1.6,2.7,2.7"/>
				<path fill="#6691F0" d="M229.2,200.1c2.8-5.3,9.3-7.3,14.6-4.6c1.9,1,3.5,2.6,4.6,4.6"/>
			</g>
		</g>
		<polygon fill="none" points="86.2,156.7 84.4,154.9 84.4,154.9 		"/>
	</g>
</g>
</svg>
